<?xml version="1.0" encoding="UTF-8"?>
<svg width="14px" height="14px" viewBox="0 0 14 14" version="1.1" xmlns="http://www.w3.org/2000/svg" xmlns:xlink="http://www.w3.org/1999/xlink">
    <!-- Generator: Sketch 62 (91390) - https://sketch.com -->
    <title>4F1785CE-2432-4537-AC7A-2E29F69D3D36</title>
    <desc>Created with Sketch.</desc>
    <g id="控件" stroke="none" stroke-width="1" fill="none" fill-rule="evenodd" fill-opacity="0.5">
        <g id="nav_add-a-playlist" fill="#FFFFFF">
            <path d="M13,0 C13.5522847,-1.01453063e-16 14,0.44771525 14,1 L14,13 C14,13.5522847 13.5522847,14 13,14 L1,14 C0.44771525,14 6.76353751e-17,13.5522847 0,13 L0,1 C-6.76353751e-17,0.44771525 0.44771525,1.01453063e-16 1,0 L13,0 Z M7,1 C6.63181017,1 6.33333333,1.29847683 6.33333333,1.66666667 L6.33333333,1.66666667 L6.333,6.333 L1.66666667,6.33333333 C1.29847683,6.33333333 1,6.63181017 1,7 C1,7.36818983 1.29847683,7.66666667 1.66666667,7.66666667 L1.66666667,7.66666667 L6.333,7.666 L6.33333333,12.3333333 C6.33333333,12.7015232 6.63181017,13 7,13 C7.36818983,13 7.66666667,12.7015232 7.66666667,12.3333333 L7.66666667,12.3333333 L7.666,7.666 L12.3333333,7.66666667 C12.7015232,7.66666667 13,7.36818983 13,7 C13,6.63181017 12.7015232,6.33333333 12.3333333,6.33333333 L12.3333333,6.33333333 L7.666,6.333 L7.66666667,1.66666667 C7.66666667,1.29847683 7.36818983,1 7,1 Z" id="icon_add-a-playlist"></path>
        </g>
    </g>
</svg>