<?xml version="1.0" encoding="UTF-8"?>
<svg width="12px" height="14px" viewBox="0 0 12 14" version="1.1" xmlns="http://www.w3.org/2000/svg" xmlns:xlink="http://www.w3.org/1999/xlink">
    <!-- Generator: Sketch 62 (91390) - https://sketch.com -->
    <title>E27F745C-1C76-49F4-AF48-7245DE0ACE39</title>
    <desc>Created with Sketch.</desc>
    <g id="控件" stroke="none" stroke-width="1" fill="none" fill-rule="evenodd" opacity="0.5">
        <g id="nav_artists" transform="translate(-1.000000, 0.000000)" fill="#FFFFFF">
            <g id="编组-2" transform="translate(1.000000, 0.000000)">
                <path d="M11.5282774,12.8133734 L11.5282774,8.72280877 C11.5418201,8.42760562 11.4336427,8.13951794 11.2282444,7.92378961 C11.0228461,7.70806127 10.737605,7.58294436 10.4371204,7.57677438 C10.4371204,7.57677438 9.56521087,7.59733191 8.06995053,7.59733191 L3.45832691,7.59733191 C2.0971163,7.59733191 1.28207045,7.57677438 1.28207045,7.57677438 C0.6454319,7.57677438 5.32907052e-15,8.10127964 5.32907052e-15,8.72280877 L5.32907052e-15,12.671392 C5.32907052e-15,13.5180933 0.760527083,13.8352941 1.28207045,13.8352941 L10.4371204,13.8352941 C11.194521,13.8345256 11.5282774,13.5180933 11.5282774,12.8133734 Z M5.7260342,8.23692093 L6.33179832,8.23692093 C6.72743575,8.23692093 7.04816325,8.55226274 7.04816325,8.94125657 L7.04816325,11.1549377 C7.04816325,11.5439316 6.72743575,11.8592734 6.33179832,11.8592734 L5.7260342,11.8592734 C5.33039678,11.8592734 5.00966928,11.5439316 5.00966928,11.1549377 L5.00966928,8.94106444 C5.00977718,8.55214564 5.33047308,8.23692093 5.7260342,8.23692093 L5.7260342,8.23692093 Z M5.69164243,11.8592734 L6.36794876,11.8592734 L6.36794876,13.8345256 L5.69164243,13.8345256 L5.69164243,11.8592734 Z M8.25226599,2.28772481 L8.25226599,3.90158715 C8.23159647,5.1845799 7.15758016,6.2084862 5.85265845,6.18923702 L5.5702942,6.18923702 C4.26537249,6.2084862 3.19135618,5.1845799 3.17068665,3.90158715 L3.17068665,2.28772481 C3.19146281,1.00480755 4.26544758,-0.0189826893 5.5702942,0.000267066122 L8.25226599,0.000267066122 L8.25226599,2.28772481 Z" id="圆角矩形_95"></path>
            </g>
        </g>
    </g>
</svg>