<?xml version="1.0" encoding="UTF-8"?>
<svg width="63px" height="63px" viewBox="0 0 63 63" version="1.1" xmlns="http://www.w3.org/2000/svg" xmlns:xlink="http://www.w3.org/1999/xlink">
    <!-- Generator: Sketch 62 (91390) - https://sketch.com -->
    <title>09042323-888C-433C-9555-6B9031B83BD2</title>
    <desc>Created with Sketch.</desc>
    <defs>
        <circle id="path-1" cx="31.5" cy="31.5" r="31.5"></circle>
    </defs>
    <g id="控件" stroke="none" stroke-width="1" fill="none" fill-rule="evenodd">
        <g id="user_male">
            <g>
                <mask id="mask-2" fill="white">
                    <use xlink:href="#path-1"></use>
                </mask>
                <use id="椭圆形" fill="#666666" xlink:href="#path-1"></use>
                <g mask="url(#mask-2)" fill="#A6A6A6" id="形状_1">
                    <g transform="translate(3.882353, 7.000000)">
                        <path d="M29.4409057,1.08330343 L29.616268,1.10516119 C40.8314248,2.29146523 38.8562411,13.8055521 38.8562411,19.4378344 C43.2423348,17.3488753 41.4356366,25.5712194 38.8562411,27.2574674 C38.5133396,27.8348955 37.7961651,28.0730188 37.1740267,27.8160126 C36.7808091,31.3629144 34.5386276,32.68918 33.8518373,32.9265704 L33.8086471,32.9400824 L33.8095979,37.3112813 C57.6330342,45.2213706 54.2814156,47.2066233 55.0917842,47.9029299 L55.1176471,47.9236403 L55.1176471,56.8603637 C36.8002013,57.0465454 18.466868,57.0465454 0.117647059,56.8603637 L0.117647059,56.8603637 L0.117647059,47.9236403 C1.02604284,47.246125 -2.64342752,45.3012705 21.4627049,37.3112813 L21.4627049,37.3112813 L21.4626471,32.9400824 L21.43293,32.9309206 C20.7771656,32.7114034 18.6012309,31.4505649 18.1253099,28.0795051 L18.092108,27.8160126 C17.4691433,28.0731016 16.7511818,27.8351137 16.4070899,27.2574674 C13.8215263,25.5712194 12.0137066,17.3488753 16.4070899,19.4378344 C16.4070899,16.3294815 15.8044277,11.4296878 17.1527463,7.46309721 C16.3507674,6.88711536 15.8659776,6.14534518 15.8659776,5.19493152 C15.8659776,0.762766451 24.5684169,0.465460515 29.4409057,1.08330343 Z"></path>
                    </g>
                </g>
            </g>
        </g>
    </g>
</svg>