<svg xmlns="http://www.w3.org/2000/svg" width="135" height="28" viewBox="0 0 135 28" fill="none">
  <path fill-rule="evenodd" clip-rule="evenodd" d="M0 14C0 6.26814 6.30781 0 14.0897 0C21.8717 0 28.1795 6.26814 28.1795 14C28.1795 21.7319 21.8717 28 14.0897 28C6.30781 28 0 21.7319 0 14" fill="#00FFFF"></path>
  <path fill-rule="evenodd" clip-rule="evenodd" d="M16.752 13.3098C18.8155 13.3098 20.4104 11.6693 20.4104 9.66453C20.4104 7.65541 18.7675 6.03217 16.7389 6.01708C15.0699 6.0063 13.7582 6.01923 11.5269 6.01923C11.2328 6.01923 10.98 6.21971 10.9147 6.50211L10.6009 7.87745C10.59 7.92919 10.6249 7.97877 10.6772 7.98523L14.3487 8.46811L15.3183 8.59746C16.2639 8.72249 16.922 9.3886 16.9002 10.2962C16.8828 11.0528 16.362 11.7038 15.6146 11.8741C14.5295 12.1199 13.5577 11.3201 13.5403 10.2832C13.5359 9.95555 13.6274 9.64728 13.7887 9.38644L10.4418 8.94668C10.3961 8.94021 10.3525 8.97039 10.3416 9.01566L9.08219 14.5386C9.07129 14.5903 9.10615 14.6399 9.15845 14.6464L14.2898 15.3189L14.8433 15.3922C15.9458 15.541 16.8196 16.3451 16.7869 17.4574C16.7586 18.4081 16.046 19.2208 15.096 19.3738C13.8475 19.5743 12.7559 18.6344 12.7341 17.4294C12.7254 16.953 12.8866 16.5132 13.1611 16.164L8.92312 15.6121C8.87737 15.6057 8.83379 15.6358 8.82289 15.6811L7.83366 20.0248C7.60487 21.0229 8.36968 21.9822 9.40467 21.9865C10.492 21.9887 14.5513 21.9844 16.7063 21.9844C19.1292 21.9844 21.075 20.0443 21.075 17.6471C21.075 15.2607 19.1663 13.3098 16.752 13.3098Z" fill="#121212"></path>
  <path fill-rule="evenodd" clip-rule="evenodd" d="M107.063 17.2087V17.213C107.057 17.2437 107.052 17.2742 107.047 17.3042C107.038 17.3583 107.029 17.411 107.019 17.461C107.004 17.545 106.995 17.6248 106.995 17.7025C106.995 18.2933 107.296 18.606 107.866 18.606C108.034 18.606 108.226 18.5758 108.436 18.5154C108.593 18.4723 108.746 18.414 108.894 18.345L108.259 21.2776C107.755 21.4997 107.567 21.5817 107.1 21.7024C106.441 21.8749 105.814 21.8965 105.34 21.8965C104.459 21.8965 103.777 21.7024 103.319 21.3186C102.865 20.9391 102.634 20.3784 102.634 19.6539C102.634 19.4987 102.64 19.3413 102.655 19.1838C102.668 19.0307 102.697 18.869 102.74 18.6944L105.426 6.44434C105.48 6.19205 105.709 6.01092 105.969 6.01092L109.479 6.00876L107.063 17.2087ZM40.1455 12.3131C41.048 12.3131 41.6963 11.5516 41.8234 10.8734C41.9018 10.4477 41.8171 10.0519 41.5819 9.75883C41.3637 9.48715 41.0438 9.28391 40.6413 9.28391L38.0482 9.27322L37.4189 12.311L40.1455 12.3131ZM39.0838 18.7589C40.0901 18.7589 40.8062 17.9203 40.946 17.1672C41.0329 16.6966 40.9397 16.2623 40.6812 15.9414C40.4439 15.6462 40.0901 15.4194 39.6686 15.4194L36.7365 15.413L36.0437 18.7524L39.0838 18.7589ZM40.738 6.06001C43.8883 6.08354 45.67 7.70297 45.67 9.72246C45.67 11.7184 44.1574 13.2694 42.5303 13.6823L42.5325 13.6844C44.7951 13.9839 45.7866 16.1061 45.4095 17.9437C44.7739 21.0371 42.1045 21.818 38.6958 21.9271C38.6788 21.9292 38.6619 21.9292 38.647 21.9292C38.5888 21.9306 38.5304 21.9322 38.4718 21.9339L38.4716 21.9339H38.4716H38.4715H38.4715H38.4715H38.4715C38.351 21.9372 38.23 21.9406 38.1089 21.942V21.9399H31.9969C31.8613 21.9399 31.7363 21.8779 31.6494 21.773C31.5647 21.6661 31.5329 21.5292 31.5605 21.3965L34.7171 6.50284C34.7722 6.24612 35.001 6.05787 35.2637 6.05787H40.7359L40.738 6.06001ZM95.9966 18.4984C97.1389 18.4137 98.2221 17.2292 98.4103 15.8558C98.5154 15.0986 98.3316 14.4087 97.907 13.964C97.5832 13.6212 97.1346 13.4476 96.6509 13.4867C95.5086 13.5713 94.4254 14.7559 94.2372 16.1292C94.1344 16.8864 94.316 17.5763 94.7405 18.0232C95.036 18.3356 95.4342 18.5027 95.8697 18.5027C95.9093 18.5027 95.949 18.5007 95.9905 18.4987L95.9966 18.4984ZM98.7326 10.2713C99.5335 10.2713 100.234 10.4644 100.812 10.8485C101.391 11.2303 101.844 11.7618 102.16 12.4257C102.475 13.0918 102.634 13.8707 102.634 14.7407C102.634 15.6844 102.466 16.5956 102.135 17.4483C101.801 18.3009 101.348 19.0668 100.783 19.7198C100.223 20.375 99.5686 20.8957 98.8399 21.2689C98.1133 21.6399 97.3518 21.8286 96.575 21.8286C95.8178 21.8286 95.181 21.6702 94.6821 21.3578C94.1897 21.0476 93.8593 20.592 93.7039 19.9997L93.6207 19.6786L92.1852 26.1591H88.1675L91.5047 10.8918C91.5594 10.6337 91.7957 10.4449 92.0627 10.4449H95.0694L94.6471 12.4019L94.8549 12.1524C95.3604 11.5471 95.936 11.0784 96.5684 10.7552C97.1986 10.4341 97.9273 10.2713 98.7326 10.2713ZM118.157 15.8263C117.97 17.1924 116.891 18.3707 115.753 18.4548L115.746 18.4551C115.705 18.4572 115.666 18.4592 115.626 18.4592C115.193 18.4592 114.796 18.293 114.502 17.9822C114.079 17.5377 113.895 16.8514 114 16.0982C114.188 14.7322 115.267 13.5539 116.405 13.4697C116.889 13.433 117.333 13.6035 117.656 13.9445C118.079 14.3869 118.262 15.0731 118.157 15.8263ZM122.03 18.0728C121.823 18.1289 121.696 18.0771 121.622 18.0189C121.463 17.8872 121.426 17.6132 121.518 17.201L122.913 10.9447H119.669L119.403 12.2547L119.296 12.1187C118.93 11.6569 118.272 11.0289 117.687 10.7397C117.097 10.4462 116.373 10.2714 115.754 10.2714C114.936 10.2714 114.154 10.4592 113.423 10.8282C112.689 11.1994 112.026 11.713 111.451 12.3583C110.875 13.0014 110.419 13.7567 110.095 14.6048C109.772 15.4529 109.608 16.368 109.608 17.3197C109.608 18.1872 109.772 18.9663 110.092 19.6353C110.415 20.3021 110.877 20.8287 111.468 21.202C112.059 21.5775 112.778 21.7674 113.607 21.7674C114.306 21.7674 115.006 21.6099 115.688 21.3034C116.46 20.956 117.14 20.4337 117.602 19.8338L117.744 19.6482C117.744 19.6482 117.546 20.5999 118.147 21.174C118.522 21.5279 119.224 21.5624 119.667 21.5495C120.425 21.53 121.127 21.2214 121.372 21.0315L122.03 18.0728ZM52.121 18.5368C53.2719 18.4526 54.3638 17.2614 54.5538 15.8824C54.6586 15.1227 54.473 14.43 54.0471 13.9811C53.7196 13.638 53.2697 13.4653 52.7827 13.5042C51.6318 13.5884 50.5399 14.7796 50.3499 16.1586C50.2451 16.9182 50.4307 17.611 50.8565 18.0577C51.1557 18.3728 51.5554 18.5411 51.9943 18.5411C52.0358 18.5411 52.0795 18.539 52.121 18.5368ZM53.5479 10.2713C54.7577 10.2713 55.7427 10.485 56.4742 10.9015C57.2015 11.318 57.7409 11.8856 58.0772 12.5848C58.4135 13.2905 58.586 14.0868 58.586 14.9522C58.586 15.8348 58.4179 16.6937 58.0859 17.5052C57.754 18.3188 57.2735 19.0525 56.6533 19.6891C56.0353 20.3257 55.2709 20.8372 54.3843 21.2084C53.4977 21.5796 52.4778 21.7673 51.3531 21.7673C50.1564 21.7673 49.178 21.5515 48.4399 21.1285C47.7017 20.7034 47.1601 20.1294 46.8238 19.4237C46.4875 18.7115 46.315 17.9174 46.315 17.0649C46.315 16.1823 46.4832 15.3234 46.8151 14.5119C47.147 13.7005 47.6275 12.9668 48.2477 12.328C48.8657 11.6935 49.6301 11.1864 50.5167 10.8216C51.4012 10.4569 52.4232 10.2713 53.5479 10.2713ZM66.8311 15.9536C66.6411 17.3326 65.549 18.5238 64.3979 18.608C64.3564 18.6101 64.3127 18.6123 64.2712 18.6123C63.8322 18.6123 63.4324 18.444 63.1332 18.1289C62.7073 17.68 62.5216 16.9873 62.6265 16.2298C62.8165 14.8508 63.9086 13.6595 65.0597 13.5754C65.5468 13.5365 65.9967 13.7092 66.3244 14.0523C66.7503 14.5012 66.9359 15.1939 66.8311 15.9536ZM70.3502 12.5848C70.016 11.8834 69.4743 11.318 68.747 10.9015C68.0152 10.4828 67.0323 10.2713 65.8223 10.2713C64.6952 10.2713 63.6752 10.4569 62.7884 10.8195C61.9016 11.1842 61.1393 11.6913 60.519 12.328C59.9008 12.9646 59.4181 13.7005 59.0861 14.5119C58.7563 15.3234 58.5881 16.1823 58.5881 17.0649C58.5881 17.9174 58.7585 18.7094 59.0948 19.4215C59.4312 20.1294 59.9751 20.7034 60.7112 21.1264C61.4494 21.5515 62.4302 21.7673 63.6249 21.7673C64.752 21.7673 65.772 21.5796 66.6566 21.2084C67.5434 20.8372 68.3079 20.3257 68.9261 19.6891C69.5464 19.0525 70.0291 18.3166 70.3589 17.5052C70.6909 16.6937 70.8591 15.8348 70.8591 14.9522C70.8591 14.0868 70.6887 13.2905 70.3502 12.5848ZM127.829 17.1232C129.469 13.9938 130.86 10.7091 131.042 10.2714H134.795C134.217 11.394 129.652 20.2548 127.562 23.2791C125.322 26.5223 121.339 26.1875 120.716 26.1131L121.359 23.0822C122.629 23.2106 123.525 22.7025 123.83 22.5291L123.835 22.5263C124.194 22.3228 124.727 21.7604 124.959 21.4518L124.979 21.4234L123.493 10.2714H127.203L127.702 17.3661L127.829 17.1232ZM89.6848 13.226C89.7067 12.9732 89.7176 12.7825 89.7176 12.6582C89.7176 12.2447 89.6499 11.8505 89.5125 11.4841C89.3794 11.1263 89.1329 10.8327 88.7751 10.6099C88.3518 10.3442 87.6929 10.235 86.8224 10.2821C86.5956 10.2928 86.373 10.3228 86.1614 10.3657C85.4436 10.5157 84.7782 10.7792 84.1826 11.152C83.7353 11.4284 83.3339 11.7733 82.9892 12.1783L82.8648 12.3218L82.8496 12.1333C82.819 11.8055 82.7274 11.4927 82.5703 11.2077C82.4176 10.9249 82.1623 10.6978 81.8132 10.5285C81.4598 10.3571 80.9537 10.2714 80.3079 10.2714C79.4854 10.2714 78.6847 10.43 77.9276 10.7428C77.1728 11.0556 76.5335 11.5162 76.0317 12.1119L75.8223 12.3604L76.2455 10.4428L73.0951 10.4407H73.0908C72.8312 10.4407 72.6043 10.6228 72.5475 10.8713L70.2131 21.5091L74.2515 21.5069L75.6303 15.2293C75.8572 14.3658 76.599 13.6931 77.3429 13.6866H77.3538C77.6767 13.6866 77.9669 13.8173 78.1698 14.0573C78.4163 14.3487 78.5167 14.7729 78.4491 15.2293H78.4534L78.4294 15.345L77.0768 21.5091H81.0737L82.4547 15.2293C82.6794 14.3658 83.4212 13.6931 84.1673 13.6866H84.176C84.5011 13.6866 84.7913 13.8173 84.992 14.0573C85.2407 14.3487 85.3411 14.7729 85.2713 15.2293H85.2756L85.2516 15.345L83.9011 21.5091H87.9046L89.5212 14.2158C89.6085 13.8087 89.663 13.4767 89.6848 13.226Z" fill="#00FFFF"></path>
</svg>