<?xml version="1.0" encoding="UTF-8"?>
<svg width="14px" height="13px" viewBox="0 0 14 13" version="1.1" xmlns="http://www.w3.org/2000/svg" xmlns:xlink="http://www.w3.org/1999/xlink">
    <!-- Generator: Sketch 62 (91390) - https://sketch.com -->
    <title>5024B1BA-CE0A-46B9-855F-86C8F819231F</title>
    <desc>Created with Sketch.</desc>
    <g id="控件" stroke="none" stroke-width="1" fill="none" fill-rule="evenodd" opacity="0.5">
        <g id="nav_Charts" transform="translate(0.000000, -1.000000)" fill="#FFFFFF">
            <g id="圆角矩形_96_拷贝_2">
                <path d="M6.40255537,1 L7.39522241,1 C8.11658408,1 8.70136326,1.55777858 8.70136326,2.24583333 L8.70136326,12.7541667 C8.70136326,13.4422214 8.11658408,14 7.39522241,14 L6.40255537,14 C5.6811937,14 5.09641452,13.4422214 5.09641452,12.7541667 L5.09641452,2.24583333 C5.09641452,1.55777858 5.6811937,1 6.40255537,1 L6.40255537,1 Z M11.320081,4.40419444 L12.312748,4.40419444 C13.0341097,4.40419444 13.6188889,4.96197303 13.6188889,5.65002778 L13.6188889,12.7541667 C13.6188889,13.4422214 13.0341097,14 12.312748,14 L11.320081,14 C10.5987193,14 10.0139402,13.4422214 10.0139402,12.7541667 L10.0139402,5.65002778 C10.0139402,4.96197303 10.5987193,4.40419444 11.320081,4.40419444 L11.320081,4.40419444 Z M1.48502973,7.5 L2.47769678,7.5 C3.19905845,7.5 3.78383762,8.05777858 3.78383762,8.74583333 L3.78383762,12.7541667 C3.78383762,13.4422214 3.19905845,14 2.47769678,14 L1.48502973,14 C1.13861964,14 0.806397609,13.8687429 0.561448685,13.6351039 C0.316499761,13.4014648 0.178888889,13.0845822 0.178888889,12.7541667 L0.178888889,8.74583333 C0.178888889,8.05777858 0.763668064,7.5 1.48502973,7.5 Z"></path>
            </g>
        </g>
    </g>
</svg>