<?xml version="1.0" encoding="UTF-8"?>
<svg width="14px" height="14px" viewBox="0 0 14 14" version="1.1" xmlns="http://www.w3.org/2000/svg" xmlns:xlink="http://www.w3.org/1999/xlink">
    <!-- Generator: Sketch 62 (91390) - https://sketch.com -->
    <title>D6BBEA61-AF4E-4C33-BF05-4E8EF6E6B8C1</title>
    <desc>Created with Sketch.</desc>
    <g id="控件" stroke="none" stroke-width="1" fill="none" fill-rule="evenodd" opacity="0.5">
        <g id="nav_Genres" fill="#FFFFFF">
            <g id="形状结合">
                <path d="M7,0 C8.70079211,0 10.2599124,0.606568997 11.4728357,1.61518167 L11.4722222,4.83285185 L11.3542666,4.84348851 C11.199423,4.87024867 11.0561745,4.94650202 10.9469955,5.06242519 C10.8105218,5.20732915 10.7391079,5.4016603 10.7492778,5.6004537 L10.7492778,5.6004537 L10.7492778,8.03828472 C10.7492778,8.24184603 10.8301566,8.43706691 10.9741159,8.58098674 C11.1180753,8.72490656 11.3133183,8.80567595 11.5168796,8.80567595 L11.5168796,8.80567595 L12.1488241,8.80567595 C12.3523854,8.80567595 12.5476284,8.72490656 12.6915878,8.58098674 C12.8355471,8.43706691 12.9164259,8.24184603 12.9164259,8.03828472 L12.9164259,8.03828472 L12.9164259,5.6004537 C12.9265326,5.40180439 12.8551772,5.20762683 12.7188477,5.06278915 C12.5825181,4.91795146 12.3930104,4.83498568 12.1941134,4.8330625 L12.1941134,4.8330625 L12.1947453,2.30794249 C13.3167441,3.54937007 14,5.19489356 14,7 C14,10.8659932 10.8659932,14 7,14 C3.13400675,14 0,10.8659932 0,7 C0,3.13400675 3.13400675,0 7,0 Z M7,3.74822454 C5.204094,3.74822454 3.74822454,5.204094 3.74822454,7 C3.74822454,8.795906 5.204094,10.2517755 7,10.2517755 C8.795906,10.2517755 10.2517755,8.795906 10.2517755,7 C10.2517755,5.204094 8.795906,3.74822454 7,3.74822454 Z M7,5.5541111 C7.58493099,5.55402591 8.11230933,5.90632552 8.33619209,6.446715 C8.56007485,6.98710448 8.4363661,7.60914874 8.02275742,8.02275742 C7.60914874,8.4363661 6.98710448,8.56007485 6.446715,8.33619209 C5.90632552,8.11230933 5.55402591,7.58493099 5.5541111,7 C5.5541111,6.20145762 6.20145762,5.5541111 7,5.5541111 Z"></path>
            </g>
        </g>
    </g>
</svg>