<svg xmlns="http://www.w3.org/2000/svg" width="14" height="14" viewBox="0 0 14 14" fill="none">
  <path d="M2.39683 13.9988C3.34177 14.0015 6.86139 13.9988 8.73015 13.9988C9.22872 13.9987 9.72238 13.9002 10.1828 13.7091C10.6433 13.5179 11.0615 13.2377 11.4135 12.8846C11.7655 12.5316 12.0444 12.1125 12.2341 11.6514C12.4239 11.1904 12.5208 10.6964 12.5194 10.1979C12.5194 8.10567 10.8635 6.39589 8.76962 6.39589C10.5589 6.39589 11.9413 4.95791 11.9413 3.20032C11.9407 2.35524 11.6057 1.54473 11.0094 0.945865C10.4132 0.347001 9.60413 0.00845873 8.75906 0.00419973C7.31385 -0.00524967 6.17214 0.00419973 4.23835 0.00419973C4.11488 0.00418389 3.99507 0.0461579 3.89861 0.123228C3.80215 0.200298 3.73476 0.307882 3.70752 0.428311L3.43571 1.63339C3.43338 1.6439 3.43326 1.65479 3.43536 1.66535C3.43745 1.67591 3.44172 1.68592 3.44788 1.69475C3.45405 1.70358 3.46198 1.71104 3.47117 1.71664C3.48037 1.72225 3.49062 1.72589 3.5013 1.72733L6.68575 2.15033L7.52508 2.2615C8.34717 2.37266 8.91469 2.9563 8.89857 3.75061C8.89334 4.07246 8.7808 4.38335 8.57881 4.63397C8.37681 4.8846 8.09693 5.06062 7.78355 5.13411C7.50299 5.20223 7.20852 5.18552 6.93747 5.08609C6.66642 4.98667 6.43099 4.80901 6.26101 4.57564C6.09104 4.34226 5.99419 4.06368 5.98272 3.7752C5.97125 3.48671 6.04569 3.20132 6.1966 2.95519V2.95519L3.29508 2.56888C3.2758 2.56619 3.25621 2.57088 3.24023 2.58201C3.22426 2.59314 3.21308 2.60989 3.20892 2.62891L2.1189 7.47145C2.11658 7.48197 2.11646 7.49285 2.11855 7.50341C2.12065 7.51397 2.12492 7.52399 2.13108 7.53282C2.13725 7.54165 2.14518 7.5491 2.15437 7.55471C2.16356 7.56031 2.17382 7.56395 2.18449 7.56539L6.63461 8.15459L7.11486 8.21795C8.07036 8.34858 8.82743 9.05172 8.79908 10.0283C8.79046 10.3057 8.71629 10.5771 8.58263 10.8203C8.44897 11.0635 8.25962 11.2716 8.03008 11.4275C7.80055 11.5835 7.53734 11.6829 7.26202 11.7176C6.98669 11.7523 6.70706 11.7213 6.44601 11.6271C6.18497 11.5329 5.94993 11.3783 5.76013 11.1759C5.57033 10.9734 5.43116 10.7289 5.35402 10.4623C5.27688 10.1958 5.26395 9.91473 5.3163 9.64221C5.36865 9.36969 5.48479 9.11343 5.65521 8.89442L1.97939 8.41139C1.96012 8.40883 1.9406 8.41357 1.92466 8.42468C1.90871 8.43579 1.8975 8.45246 1.89323 8.47142L1.03445 12.2801C0.988227 12.4853 0.988523 12.6982 1.03531 12.9032C1.0821 13.1083 1.1742 13.3002 1.30485 13.4651C1.43549 13.6299 1.60138 13.7634 1.79033 13.8557C1.97929 13.9481 2.18652 13.9969 2.39683 13.9988V13.9988Z" fill="#00FFFF"></path>
</svg>