<?xml version="1.0" encoding="UTF-8"?>
<svg width="14px" height="14px" viewBox="0 0 14 14" version="1.1" xmlns="http://www.w3.org/2000/svg" xmlns:xlink="http://www.w3.org/1999/xlink">
    <!-- Generator: Sketch 62 (91390) - https://sketch.com -->
    <title>8F389E31-46AF-4894-B294-4B4C8C1A633B</title>
    <desc>Created with Sketch.</desc>
    <g id="控件" stroke="none" stroke-width="1" fill="none" fill-rule="evenodd" opacity="0.5">
        <g id="nav_my-playlist" fill="#FFFFFF">
            <g>
                <path d="M8.33333333,9.5 L12.3333333,9.5 C12.7935706,9.5 13.1666666,9.89175084 13.1666666,10.375 C13.1666666,10.8582492 12.7935706,11.25 12.3333333,11.25 L8.33333333,11.25 C7.87309604,11.25 7.5,10.8582492 7.5,10.375 C7.5,9.89175084 7.87309604,9.5 8.33333333,9.5 L8.33333333,9.5 Z M8.33333333,7 L12.3333333,7 C12.7935706,7 13.1666666,7.39175084 13.1666666,7.875 C13.1666666,8.35824916 12.7935706,8.75 12.3333333,8.75 L8.33333333,8.75 C7.87309604,8.75 7.5,8.35824916 7.5,7.875 C7.5,7.39175084 7.87309604,7 8.33333333,7 L8.33333333,7 Z M8.33333329,12 L12.3333333,12 C12.7935706,12 13.1666666,12.3917508 13.1666666,12.875 C13.1666666,13.3582492 12.7935706,13.75 12.3333333,13.75 L8.33333329,13.75 C7.87309602,13.75 7.5,13.3582491 7.5,12.875 C7.5,12.3917509 7.87309602,12 8.33333329,12 L8.33333329,12 Z" id="椭圆_19_拷贝"></path>
                <path d="M1.26724427,7.66671345 C1.26724427,7.66671345 2.07141831,7.68771328 3.4177397,7.68771328 L6.63,7.687 L6.62840458,7.72004636 L6.62840458,8.41337427 C6.62840458,9.18503491 6.97956058,9.10670218 6.97956058,9.10670218 C6.97956058,9.10670218 6.62840458,9.15236849 6.62840458,10.146694 L6.62840458,10.146694 L6.62840458,10.493358 C6.62840458,11.3590179 6.97956058,11.5333499 6.97956058,11.5333499 C6.74316528,11.8281219 6.6188232,12.1963763 6.62840458,12.5733417 L6.62840458,12.5733417 L6.628,13.999 L1.12773363,13.9997715 C0.896617296,13.9860027 0.674314386,13.9059223 0.487920715,13.769291 L0.380610388,13.6806042 C0.141285789,13.4581985 0.00377664382,13.1481197 0,12.8223398 L0,12.8223398 L0,8.82637104 C0.0569052968,8.17173341 0.606732715,7.66858532 1.26724427,7.66671345 Z M8.15499497,0.000106750521 L8.15499497,3.9484092 C8.14247097,5.23903553 7.08072449,6.2752664 5.78335168,6.26305776 L5.50457135,6.26305776 C4.20719854,6.2752664 3.14545206,5.23903553 3.13292806,3.9484092 L3.13292806,2.31508864 C3.14526828,1.02433163 4.20706894,-0.0121013425 5.50457135,0.000106750521 L8.15499497,0.000106750521 Z" id="椭圆_19_拷贝_3"></path>
            </g>
        </g>
    </g>
</svg>