<svg width="14" height="14" viewBox="0 0 14 14" fill="none" xmlns="http://www.w3.org/2000/svg">
<path opacity="0.5" fill-rule="evenodd" clip-rule="evenodd" d="M8.53125 0.167988V4.09721C8.07412 3.85557 7.55304 3.71875 7 3.71875C5.18782 3.71875 3.71875 5.18782 3.71875 7C3.71875 8.81218 5.18782 10.2812 7 10.2812C8.81218 10.2812 10.2812 8.81218 10.2812 7V0.815108C12.4936 1.99126 14 4.31971 14 7C14 10.866 10.866 14 7 14C3.13401 14 0 10.866 0 7C0 3.13401 3.13401 0 7 0C7.52598 0 8.03842 0.0580124 8.53125 0.167988ZM7 5.46875C7.84569 5.46875 8.53125 6.15431 8.53125 7C8.53125 7.84569 7.84569 8.53125 7 8.53125C6.15431 8.53125 5.46875 7.84569 5.46875 7C5.46875 6.15431 6.15431 5.46875 7 5.46875Z" fill="white"/>
</svg>
