<?xml version="1.0" encoding="UTF-8"?>
<svg width="14px" height="14px" viewBox="0 0 14 14" version="1.1" xmlns="http://www.w3.org/2000/svg" xmlns:xlink="http://www.w3.org/1999/xlink">
    <!-- Generator: Sketch 62 (91390) - https://sketch.com -->
    <title>462117FC-F924-4A21-ADF7-2742E2276CBE</title>
    <desc>Created with Sketch.</desc>
    <g id="控件" stroke="none" stroke-width="1" fill="none" fill-rule="evenodd" opacity="0.5">
        <g id="nav_playlists" fill="#FFFFFF">
            <g>
                <path d="M9.52462578,7 L13.2253742,7 C13.6531882,7 14,7.34822297 14,7.77777778 C14,8.20733258 13.6531882,8.55555556 13.2253742,8.55555556 L9.52462578,8.55555556 C9.09681178,8.55555556 8.75,8.20733258 8.75,7.77777778 C8.75,7.34822297 9.09681178,7 9.52462578,7 Z" id="椭圆_19-path"></path>
                <path d="M9.52493447,9.33406023 L13.2254276,9.33406023 C13.6532121,9.33406023 14,9.68212048 14,10.1114746 C14,10.5408286 13.6532121,10.8888889 13.2254276,10.8888889 L9.52493447,10.8888889 C9.09694998,10.8888889 8.75,10.5406659 8.75,10.1111111 C8.75,9.68155631 9.09694998,9.33333333 9.52493447,9.33333333 L9.52493447,9.33406023 Z" id="椭圆_19-path"></path>
                <path d="M9.52485731,11.6672801 L13.2254143,11.6672801 C13.6532062,11.6672801 14,12.0588936 14,12.5419734 C14,13.0250531 13.6532062,13.4166667 13.2254143,13.4166667 L9.52485731,13.4166667 C9.09691543,13.4166667 8.75,13.0249158 8.75,12.5416667 C8.75,12.0584175 9.09691543,11.6666667 9.52485731,11.6666667 L9.52485731,11.6672801 Z" id="椭圆_19-path"></path>
                <path d="M8.34297321,0 C8.4172431,0 8.49031133,0.00439613843 8.56184094,0.0129004926 C8.84192048,-0.0300564945 9.09939868,0.0290844815 9.27338361,0.203074303 L12.746916,3.67639178 C13.1122843,4.04177041 12.9712436,4.77535379 12.4316008,5.31494333 C11.8921607,5.85453287 11.158587,5.99563766 10.793016,5.63025903 L9.916,4.753 L9.916,6.416 L9.38921251,6.41666667 C8.99377104,6.41666667 8.26573145,6.78812387 8.1762712,7.48604738 L8.16718129,7.62997164 L8.16718129,8.23662412 C8.16718129,8.91170672 8.47192723,8.8432766 8.47192723,8.8432766 L8.45883268,8.84668267 C8.4005024,8.86618175 8.16718129,8.99177084 8.16718129,9.75325533 L8.16718129,9.75325533 L8.16718129,10.0565816 C8.16718129,10.8140994 8.47192723,10.9665603 8.47192723,10.9665603 C8.26610335,11.2254358 8.15829927,11.5473413 8.16718129,11.876539 L8.16718129,11.876539 L8.16832911,12.8205724 C6.76149492,14.0163288 4.79197856,14.3378347 3.06458195,13.6239804 C1.20982539,12.8574939 6.52612531e-06,11.0485239 6.52612531e-06,9.04163284 C-0.00212376018,7.72876522 0.517356991,6.46881794 1.44418175,5.53896593 C2.24742987,4.73309418 3.29961355,4.23237196 4.42054556,4.11174526 L4.50261415,4.10387445 C4.96546366,4.18070373 5.65678607,4.40540977 5.74139337,5.06261761 L5.74997783,5.1999102 L5.75031314,6.65049479 C5.51666223,6.49936848 5.2397037,6.41490054 4.94917309,6.41672407 C4.1463236,6.4193063 3.49754791,7.07217599 3.50000653,7.87502124 C3.50000653,8.46567781 3.85633544,8.99799578 4.4023914,9.22316565 C4.94844737,9.44833553 5.57640217,9.32188302 5.99274492,8.902913 C6.31755132,8.57605696 6.46351696,8.12153352 6.40345603,7.67887801 L6.4078692,7.66593992 L6.41667319,7.60374324 L6.41667319,1.34466415 C6.41667319,0.602026645 7.12124268,0 7.99037318,0 L8.34297321,0 Z" id="形状结合"></path>
            </g>
        </g>
    </g>
</svg>