<?xml version="1.0" encoding="UTF-8"?>
<svg xmlns="http://www.w3.org/2000/svg" xmlns:xlink="http://www.w3.org/1999/xlink" width="14px" height="14px" viewBox="0 0 14 14" version="1.1">
  <title>web-podcast</title>
  <g id="图标" stroke="none" stroke-width="1" fill="none" fill-rule="evenodd">
    <g id="podcast-icon合集" transform="translate(-65.000000, -84.000000)">
      <g id="web-podcast" transform="translate(65.000000, 84.000000)">
        <rect id="矩形" x="0" y="0" width="14" height="14"></rect>
        <g id="podcast" transform="translate(0.349169, -0.000000)" fill="#979797" fill-rule="nonzero">
          <path d="M6.65083135,8.67933492 C7.58866208,8.67933492 8.35447311,9.08106428 8.40142045,9.58624444 C8.40293389,9.61889193 8.39997499,9.65159303 8.39262601,9.68343862 L7.44759041,13.7785929 L7.43226808,13.7787763 C7.40250358,13.9024386 7.05738511,14 6.63602177,14 C6.19511694,14 5.83769295,13.8931795 5.83769295,13.7614098 C5.83769295,13.7521215 5.83946887,13.7429572 5.84292476,13.7339455 L4.90902731,9.68344078 L4.90131369,9.63514279 L4.90131369,9.63514279 L4.90024226,9.58624444 C4.9471896,9.08106428 5.71300063,8.67933492 6.65083135,8.67933492 Z M6.65083135,-5.68434189e-14 C10.3239841,-5.68434189e-14 13.3016627,2.97767862 13.3016627,6.65083135 C13.3016627,9.55325467 11.4424831,12.0214433 8.85007571,12.9294453 L9.22437218,11.3088113 C10.8624632,10.4018303 11.9714964,8.65584511 11.9714964,6.65083135 C11.9714964,3.71230917 9.58935354,1.33016627 6.65083135,1.33016627 C3.71230917,1.33016627 1.33016627,3.71230917 1.33016627,6.65083135 C1.33016627,8.65584511 2.43919954,10.4018303 4.07729052,11.3088113 L4.45144995,12.9293973 C1.85911413,12.0213563 2.13162821e-13,9.55320352 2.13162821e-13,6.65083135 C2.13162821e-13,2.97767862 2.97767862,-5.68434189e-14 6.65083135,-5.68434189e-14 Z M6.65083135,2.66033254 C8.85472299,2.66033254 10.6413302,4.44693972 10.6413302,6.65083135 C10.6413302,7.62084257 10.2952298,8.51001771 9.71978122,9.20160448 C9.61420692,8.82142575 9.27743429,8.4836481 8.79062873,8.23112094 C9.11778998,7.78968638 9.3111639,7.24284132 9.3111639,6.65083135 C9.3111639,5.18157026 8.12009245,3.99049881 6.65083135,3.99049881 C5.18157026,3.99049881 3.99049881,5.18157026 3.99049881,6.65083135 C3.99049881,7.24284132 4.18387273,7.78968638 4.51090264,8.23164863 C4.02422841,8.4836481 3.68745579,8.82142575 3.58115039,9.20058063 C3.00643295,8.51001771 2.66033254,7.62084257 2.66033254,6.65083135 C2.66033254,4.44693972 4.44693972,2.66033254 6.65083135,2.66033254 Z M6.65083135,5.48693587 C7.29363308,5.48693587 7.81472684,6.00802963 7.81472684,6.65083135 C7.81472684,7.29363308 7.29363308,7.81472684 6.65083135,7.81472684 C6.00802963,7.81472684 5.48693587,7.29363308 5.48693587,6.65083135 C5.48693587,6.00802963 6.00802963,5.48693587 6.65083135,5.48693587 Z" id="形状结合"></path>
        </g>
      </g>
    </g>
  </g>
</svg>
