<?xml version="1.0" encoding="UTF-8"?>
<svg width="14px" height="14px" viewBox="0 0 14 14" version="1.1" xmlns="http://www.w3.org/2000/svg" xmlns:xlink="http://www.w3.org/1999/xlink">
    <!-- Generator: Sketch 62 (91390) - https://sketch.com -->
    <title>976B518F-4580-444B-84B6-7946094C6A3C</title>
    <desc>Created with Sketch.</desc>
    <g id="控件" stroke="none" stroke-width="1" fill="none" fill-rule="evenodd" fill-opacity="0.5">
        <g id="nav_Recommended" fill="#FFFFFF" fill-rule="nonzero">
            <g id="icon_recommend">
                <path d="M13.6957207,6.04441635 L13.6957207,6.04441635 L10.1789531,8.710556 L11.5337465,13.0487381 C11.5550601,13.1156915 11.5665563,13.1880568 11.5665563,13.2630862 C11.5665563,13.6417851 11.2737788,13.9490402 10.9119761,13.9490402 C10.7683455,13.9490402 10.636243,13.9003666 10.5284122,13.8186352 L10.5279964,13.8186352 L6.98435102,11.132423 L3.44070561,13.8186352 L3.44028989,13.8186352 C3.332459,13.9003667 3.20035656,13.9490402 3.05672595,13.9490402 C2.69492325,13.9490402 2.40212977,13.6417683 2.40212977,13.2630862 C2.40212977,13.1880568 2.41365795,13.1156915 2.43495552,13.0487381 L3.78978094,8.710556 L0.272533625,6.04441635 L0.272949344,6.04441635 C0.108884578,5.91982537 0.00191710937,5.71752421 0.00191710937,5.48885051 C0.00191710937,5.11015157 0.294694609,4.80289642 0.656513297,4.80289642 L0.656513297,4.80289642 L5.00986572,4.80289642 L6.35831147,0.485725255 C6.4405597,0.205261525 6.68987867,0.00118431185 6.98435102,0.00118431185 C7.27883936,0.00118431185 7.52815831,0.205278275 7.61040655,0.485725255 L8.95878834,4.80291317 L13.3121728,4.80291317 L13.3121728,4.80291317 C13.6739755,4.80291317 13.9667689,5.11016832 13.9667689,5.48886726 C13.9667689,5.71752421 13.8598175,5.91982537 13.6957207,6.04441635 Z" id="路径"></path>
            </g>
        </g>
    </g>
</svg>