<svg width="14" height="14" viewBox="0 0 14 14" fill="none" xmlns="http://www.w3.org/2000/svg">
<path opacity="0.5" fill-rule="evenodd" clip-rule="evenodd" d="M6.43866 0H6.15593C6.06167 0 6.06167 0.177114 6.06167 0.265705C6.3444 1.15143 6.3444 3.18867 2.95165 5.93445C-0.158381 8.4145 0.501318 12.9318 4.55375 13.6404C3.61134 11.6918 4.27104 9.83172 4.27104 9.83172C4.27104 9.83172 4.93074 14.1718 8.41774 13.9947C10.3026 13.8175 11.245 12.8432 11.8105 11.8689C13.6011 8.76882 12.1875 5.22584 11.1508 3.9858C11.0565 3.89728 10.9623 3.89728 10.9623 3.89728C10.8681 3.89728 10.8681 3.9858 10.8681 4.07441C10.8681 4.69441 10.7738 5.75733 9.8314 6.46594C9.54869 6.73165 9.07744 6.46594 9.1717 6.11163C9.36017 4.69441 9.54869 1.59433 6.43866 0" fill="white"/>
</svg>
